<svg xmlns="http://www.w3.org/2000/svg" viewBox="0 0 512 512">
  <rect width="512" height="512" rx="100" fill="#4CAF50" />
  <path d="M256 100 C 180 100, 120 160, 120 236 C 120 312, 180 372, 256 372 C 332 372, 392 312, 392 236 C 392 160, 332 100, 256 100 Z" fill="#E8F5E9" />
  <path d="M256 140 C 200 140, 160 180, 160 236 C 160 292, 200 332, 256 332 C 312 332, 352 292, 352 236 C 352 180, 312 140, 256 140 Z" fill="#4CAF50" />
  <path d="M256 180 C 220 180, 200 200, 200 236 C 200 272, 220 292, 256 292 C 292 292, 312 272, 312 236 C 312 200, 292 180, 256 180 Z" fill="#E8F5E9" />
  <path d="M256 400 L 256 450 M 226 420 L 286 420" stroke="#E8F5E9" stroke-width="20" stroke-linecap="round" />
</svg>